<?xml version="1.0" encoding="UTF-8"?>
<!DOCTYPE svg PUBLIC "-//W3C//DTD SVG 1.1//EN" "http://www.w3.org/Graphics/SVG/1.1/DTD/svg11.dtd">
<svg xmlns="http://www.w3.org/2000/svg" version="1.1" width="194px" height="194px" style="shape-rendering:geometricPrecision; text-rendering:geometricPrecision; image-rendering:optimizeQuality; fill-rule:evenodd; clip-rule:evenodd" xmlns:xlink="http://www.w3.org/1999/xlink">
<g><path style="opacity:0.991" fill="#ce597b" d="M 87.5,-0.5 C 93.8333,-0.5 100.167,-0.5 106.5,-0.5C 109.429,0.53768 112.429,1.70435 115.5,3C 118.119,4.8565 118.952,7.3565 118,10.5C 116.108,12.0542 114.608,13.8876 113.5,16C 115.847,23.6583 116.847,31.4917 116.5,39.5C 115.508,39.6716 114.842,39.3382 114.5,38.5C 114.225,30.6176 112.891,22.951 110.5,15.5C 112.5,13.1667 114.5,10.8333 116.5,8.5C 105.963,3.47333 94.9631,2.30666 83.5,5C 80.8877,5.63949 78.5543,6.80616 76.5,8.5C 78.5,10.8333 80.5,13.1667 82.5,15.5C 79.5504,22.8632 78.2171,30.5299 78.5,38.5C 78.1583,39.3382 77.4916,39.6716 76.5,39.5C 76.1533,31.4917 77.1533,23.6583 79.5,16C 78.392,13.8876 76.892,12.0542 75,10.5C 74.3333,8.83333 74.3333,7.16667 75,5.5C 78.8422,2.61953 83.0089,0.619525 87.5,-0.5 Z"/></g>
<g><path style="opacity:1" fill="#c02c58" d="M 114.5,38.5 C 113.833,38.5 113.167,38.5 112.5,38.5C 112.625,31.913 111.458,25.5796 109,19.5C 105.385,16.1087 101.052,14.7753 96,15.5C 88.5223,14.2339 83.8556,17.2339 82,24.5C 81.006,29.118 80.506,33.7847 80.5,38.5C 79.8333,38.5 79.1667,38.5 78.5,38.5C 78.2171,30.5299 79.5504,22.8632 82.5,15.5C 80.5,13.1667 78.5,10.8333 76.5,8.5C 78.5543,6.80616 80.8877,5.63949 83.5,5C 94.9631,2.30666 105.963,3.47333 116.5,8.5C 114.5,10.8333 112.5,13.1667 110.5,15.5C 112.891,22.951 114.225,30.6176 114.5,38.5 Z"/></g>
<g><path style="opacity:1" fill="#d87d98" d="M 112.5,38.5 C 101.82,35.8671 91.1537,35.8671 80.5,38.5C 80.506,33.7847 81.006,29.118 82,24.5C 83.8556,17.2339 88.5223,14.2339 96,15.5C 101.052,14.7753 105.385,16.1087 109,19.5C 111.458,25.5796 112.625,31.913 112.5,38.5 Z"/></g>
<g><path style="opacity:1" fill="#ed383c" d="M 112.5,38.5 C 113.167,38.5 113.833,38.5 114.5,38.5C 114.842,39.3382 115.508,39.6716 116.5,39.5C 134.474,46.1408 146.808,58.4742 153.5,76.5C 153.328,77.4916 153.662,78.1583 154.5,78.5C 154.5,79.1667 154.5,79.8333 154.5,80.5C 157.052,91.1389 157.052,101.806 154.5,112.5C 154.5,113.167 154.5,113.833 154.5,114.5C 153.662,114.842 153.328,115.508 153.5,116.5C 146.808,134.526 134.474,146.859 116.5,153.5C 115.508,153.328 114.842,153.662 114.5,154.5C 113.833,154.5 113.167,154.5 112.5,154.5C 101.806,157.052 91.1389,157.052 80.5,154.5C 79.8333,154.5 79.1667,154.5 78.5,154.5C 78.1583,153.662 77.4916,153.328 76.5,153.5C 58.4742,146.808 46.1408,134.474 39.5,116.5C 39.6716,115.508 39.3382,114.842 38.5,114.5C 38.5,113.833 38.5,113.167 38.5,112.5C 35.905,101.812 35.905,91.145 38.5,80.5C 38.5,79.8333 38.5,79.1667 38.5,78.5C 39.3382,78.1583 39.6716,77.4916 39.5,76.5C 46.1667,58.5 58.5,46.1667 76.5,39.5C 77.4916,39.6716 78.1583,39.3382 78.5,38.5C 79.1667,38.5 79.8333,38.5 80.5,38.5C 91.1537,35.8671 101.82,35.8671 112.5,38.5 Z"/></g>
<g><path style="opacity:1" fill="#c02955" d="M 89.5,40.5 C 117.624,39.1324 137.457,51.1324 149,76.5C 157.055,104.335 149.555,126.835 126.5,144C 97.4441,158.688 72.2775,153.855 51,129.5C 35.2931,103.348 37.4597,78.8482 57.5,56C 66.8102,47.8437 77.4769,42.6771 89.5,40.5 Z"/></g>
<g><path style="opacity:0.994" fill="#ce587b" d="M 39.5,76.5 C 39.6716,77.4916 39.3382,78.1583 38.5,78.5C 30.6176,78.7755 22.951,80.1088 15.5,82.5C 13.1667,80.5 10.8333,78.5 8.5,76.5C 4.89059,82.1013 3.22392,88.268 3.5,95C 3.45563,102.62 5.12229,109.787 8.5,116.5C 10.8333,114.5 13.1667,112.5 15.5,110.5C 22.8986,113.265 30.5652,114.598 38.5,114.5C 39.3382,114.842 39.6716,115.508 39.5,116.5C 31.4917,116.847 23.6583,115.847 16,113.5C 13.8876,114.608 12.0542,116.108 10.5,118C 8.83333,118.667 7.16667,118.667 5.5,118C 2.61953,114.158 0.619525,109.991 -0.5,105.5C -0.5,98.8333 -0.5,92.1667 -0.5,85.5C 0.739932,82.976 1.9066,80.3093 3,77.5C 4.8565,74.8811 7.3565,74.0477 10.5,75C 12.0542,76.892 13.8876,78.392 16,79.5C 23.6583,77.1533 31.4917,76.1533 39.5,76.5 Z"/></g>
<g><path style="opacity:0.991" fill="#ce587b" d="M 193.5,87.5 C 193.5,94.1667 193.5,100.833 193.5,107.5C 192.26,110.024 191.093,112.691 190,115.5C 188.144,118.119 185.644,118.952 182.5,118C 180.946,116.108 179.112,114.608 177,113.5C 169.342,115.847 161.508,116.847 153.5,116.5C 153.328,115.508 153.662,114.842 154.5,114.5C 162.299,113.9 169.966,112.567 177.5,110.5C 179.833,112.5 182.167,114.5 184.5,116.5C 189.555,105.978 190.721,94.9777 188,83.5C 187.361,80.8877 186.194,78.5543 184.5,76.5C 182.167,78.5 179.833,80.5 177.5,82.5C 169.968,80.3666 162.301,79.0332 154.5,78.5C 153.662,78.1583 153.328,77.4916 153.5,76.5C 161.508,76.1533 169.342,77.1533 177,79.5C 179.112,78.392 180.946,76.892 182.5,75C 184.167,74.3333 185.833,74.3333 187.5,75C 190.38,78.8422 192.38,83.0089 193.5,87.5 Z"/></g>
<g><path style="opacity:1" fill="#c02c58" d="M 38.5,78.5 C 38.5,79.1667 38.5,79.8333 38.5,80.5C 31.913,80.3754 25.5796,81.542 19.5,84C 16.0686,87.2224 14.7353,91.2224 15.5,96C 14.0812,103.812 17.0812,108.812 24.5,111C 29.118,111.994 33.7847,112.494 38.5,112.5C 38.5,113.167 38.5,113.833 38.5,114.5C 30.5652,114.598 22.8986,113.265 15.5,110.5C 13.1667,112.5 10.8333,114.5 8.5,116.5C 5.12229,109.787 3.45563,102.62 3.5,95C 3.22392,88.268 4.89059,82.1013 8.5,76.5C 10.8333,78.5 13.1667,80.5 15.5,82.5C 22.951,80.1088 30.6176,78.7755 38.5,78.5 Z"/></g>
<g><path style="opacity:1" fill="#c12c58" d="M 154.5,114.5 C 154.5,113.833 154.5,113.167 154.5,112.5C 160.913,111.784 167.246,110.617 173.5,109C 176.891,105.385 178.225,101.052 177.5,96C 178.265,91.2224 176.931,87.2224 173.5,84C 167.246,82.3825 160.913,81.2158 154.5,80.5C 154.5,79.8333 154.5,79.1667 154.5,78.5C 162.301,79.0332 169.968,80.3666 177.5,82.5C 179.833,80.5 182.167,78.5 184.5,76.5C 186.194,78.5543 187.361,80.8877 188,83.5C 190.721,94.9777 189.555,105.978 184.5,116.5C 182.167,114.5 179.833,112.5 177.5,110.5C 169.966,112.567 162.299,113.9 154.5,114.5 Z"/></g>
<g><path style="opacity:1" fill="#d87d98" d="M 38.5,80.5 C 35.905,91.145 35.905,101.812 38.5,112.5C 33.7847,112.494 29.118,111.994 24.5,111C 17.0812,108.812 14.0812,103.812 15.5,96C 14.7353,91.2224 16.0686,87.2224 19.5,84C 25.5796,81.542 31.913,80.3754 38.5,80.5 Z"/></g>
<g><path style="opacity:1" fill="#d87d98" d="M 154.5,80.5 C 160.913,81.2158 167.246,82.3825 173.5,84C 176.931,87.2224 178.265,91.2224 177.5,96C 178.225,101.052 176.891,105.385 173.5,109C 167.246,110.617 160.913,111.784 154.5,112.5C 157.052,101.806 157.052,91.1389 154.5,80.5 Z"/></g>
<g><path style="opacity:0.992" fill="#ce587b" d="M 76.5,153.5 C 77.4916,153.328 78.1583,153.662 78.5,154.5C 79.0332,162.301 80.3666,169.968 82.5,177.5C 80.5,179.833 78.5,182.167 76.5,184.5C 82.4611,188.026 88.9611,189.693 96,189.5C 103.273,189.414 110.106,187.748 116.5,184.5C 114.5,182.167 112.5,179.833 110.5,177.5C 112.576,169.968 113.909,162.302 114.5,154.5C 114.842,153.662 115.508,153.328 116.5,153.5C 116.847,161.508 115.847,169.342 113.5,177C 114.608,179.112 116.108,180.946 118,182.5C 118.667,184.167 118.667,185.833 118,187.5C 114.158,190.38 109.991,192.38 105.5,193.5C 99.1667,193.5 92.8333,193.5 86.5,193.5C 83.5711,192.462 80.5711,191.296 77.5,190C 74.8811,188.144 74.0477,185.644 75,182.5C 76.892,180.946 78.392,179.112 79.5,177C 77.1533,169.342 76.1533,161.508 76.5,153.5 Z"/></g>
<g><path style="opacity:1" fill="#c12c58" d="M 78.5,154.5 C 79.1667,154.5 79.8333,154.5 80.5,154.5C 81.2158,160.913 82.3825,167.246 84,173.5C 87.2224,176.931 91.2224,178.265 96,177.5C 101.052,178.225 105.385,176.891 109,173.5C 110.617,167.246 111.784,160.913 112.5,154.5C 113.167,154.5 113.833,154.5 114.5,154.5C 113.909,162.302 112.576,169.968 110.5,177.5C 112.5,179.833 114.5,182.167 116.5,184.5C 110.106,187.748 103.273,189.414 96,189.5C 88.9611,189.693 82.4611,188.026 76.5,184.5C 78.5,182.167 80.5,179.833 82.5,177.5C 80.3666,169.968 79.0332,162.301 78.5,154.5 Z"/></g>
<g><path style="opacity:1" fill="#d87d98" d="M 80.5,154.5 C 91.1389,157.052 101.806,157.052 112.5,154.5C 111.784,160.913 110.617,167.246 109,173.5C 105.385,176.891 101.052,178.225 96,177.5C 91.2224,178.265 87.2224,176.931 84,173.5C 82.3825,167.246 81.2158,160.913 80.5,154.5 Z"/></g>
</svg>
