<?xml version="1.0" encoding="UTF-8"?>
<!DOCTYPE svg PUBLIC "-//W3C//DTD SVG 1.1//EN" "http://www.w3.org/Graphics/SVG/1.1/DTD/svg11.dtd">
<svg xmlns="http://www.w3.org/2000/svg" version="1.1" width="202px" height="200px" style="shape-rendering:geometricPrecision; text-rendering:geometricPrecision; image-rendering:optimizeQuality; fill-rule:evenodd; clip-rule:evenodd" xmlns:xlink="http://www.w3.org/1999/xlink">
<g><path style="opacity:1" fill="#37eb18" d="M 42.5,-0.5 C 81.1667,-0.5 119.833,-0.5 158.5,-0.5C 158.783,0.28913 159.283,0.955796 160,1.5C 160.5,13.4954 160.667,25.4954 160.5,37.5C 160.5,38.1667 160.5,38.8333 160.5,39.5C 160.5,40.1667 160.5,40.8333 160.5,41.5C 160.5,52.1667 160.5,62.8333 160.5,73.5C 160.5,74.1667 160.5,74.8333 160.5,75.5C 160.5,76.1667 160.5,76.8333 160.5,77.5C 160.5,90.8333 160.5,104.167 160.5,117.5C 160.5,118.167 160.5,118.833 160.5,119.5C 160.5,120.167 160.5,120.833 160.5,121.5C 160.5,132.167 160.5,142.833 160.5,153.5C 160.5,154.167 160.5,154.833 160.5,155.5C 160.5,156.167 160.5,156.833 160.5,157.5C 160.667,170.837 160.5,184.171 160,197.5C 159.283,198.044 158.783,198.711 158.5,199.5C 119.833,199.5 81.1667,199.5 42.5,199.5C 42.2172,198.711 41.7172,198.044 41,197.5C 40.5001,184.171 40.3334,170.837 40.5,157.5C 40.5,156.833 40.5,156.167 40.5,155.5C 40.5,154.833 40.5,154.167 40.5,153.5C 40.5,142.833 40.5,132.167 40.5,121.5C 40.5,120.833 40.5,120.167 40.5,119.5C 40.5,118.833 40.5,118.167 40.5,117.5C 40.5,104.167 40.5,90.8333 40.5,77.5C 40.5,76.8333 40.5,76.1667 40.5,75.5C 40.5,74.8333 40.5,74.1667 40.5,73.5C 40.5,62.8333 40.5,52.1667 40.5,41.5C 40.5,40.8333 40.5,40.1667 40.5,39.5C 40.5,38.8333 40.5,38.1667 40.5,37.5C 40.3335,25.4954 40.5001,13.4954 41,1.5C 41.7172,0.955796 42.2172,0.28913 42.5,-0.5 Z"/></g>
<g><path style="opacity:1" fill="#219633" d="M 45.5,3.5 C 82.4061,3.17036 119.239,3.50369 156,4.5C 156.831,68.0703 156.664,131.57 155.5,195C 118.595,195.829 81.762,195.663 45,194.5C 44.1707,130.763 44.3374,67.0963 45.5,3.5 Z"/></g>
<g><path style="opacity:0.981" fill="#52ad61" d="M 40.5,37.5 C 40.5,38.1667 40.5,38.8333 40.5,39.5C 31.8613,39.0784 23.528,40.4118 15.5,43.5C 13.1667,41.5 10.8333,39.5 8.5,37.5C 4.97136,42.944 3.3047,48.944 3.5,55.5C 3.46039,63.2835 5.12705,70.6168 8.5,77.5C 10.8333,75.5 13.1667,73.5 15.5,71.5C 23.5131,74.6687 31.8465,76.002 40.5,75.5C 40.5,76.1667 40.5,76.8333 40.5,77.5C 32.1573,77.8969 23.9906,76.8969 16,74.5C 13.8876,75.608 12.0542,77.108 10.5,79C 7.3565,79.9523 4.8565,79.1189 3,76.5C 1.9066,73.6907 0.739932,71.024 -0.5,68.5C -0.5,61.8333 -0.5,55.1667 -0.5,48.5C 0.619525,44.0089 2.61953,39.8422 5.5,36C 7.16667,35.3333 8.83333,35.3333 10.5,36C 12.0542,37.892 13.8876,39.392 16,40.5C 23.9906,38.1031 32.1573,37.1031 40.5,37.5 Z"/></g>
<g><path style="opacity:0.982" fill="#52ad61" d="M 201.5,48.5 C 201.5,55.1667 201.5,61.8333 201.5,68.5C 200.26,71.024 199.093,73.6907 198,76.5C 196.144,79.1189 193.644,79.9523 190.5,79C 188.946,77.108 187.112,75.608 185,74.5C 177.009,76.8969 168.843,77.8969 160.5,77.5C 160.5,76.8333 160.5,76.1667 160.5,75.5C 169.01,75.2895 177.343,73.9561 185.5,71.5C 187.833,73.5 190.167,75.5 192.5,77.5C 197.527,66.9631 198.693,55.9631 196,44.5C 195.361,41.8877 194.194,39.5543 192.5,37.5C 190.167,39.5 187.833,41.5 185.5,43.5C 177.395,40.7604 169.062,39.427 160.5,39.5C 160.5,38.8333 160.5,38.1667 160.5,37.5C 168.843,37.1031 177.009,38.1031 185,40.5C 187.112,39.392 188.946,37.892 190.5,36C 192.167,35.3333 193.833,35.3333 195.5,36C 198.38,39.8422 200.38,44.0089 201.5,48.5 Z"/></g>
<g><path style="opacity:1" fill="#249737" d="M 40.5,39.5 C 40.5,40.1667 40.5,40.8333 40.5,41.5C 32.8297,41.1114 25.4964,42.4447 18.5,45.5C 16.0299,48.8848 15.0299,52.7181 15.5,57C 14.091,66.4186 18.091,71.5852 27.5,72.5C 31.7985,73.2965 36.1318,73.6299 40.5,73.5C 40.5,74.1667 40.5,74.8333 40.5,75.5C 31.8465,76.002 23.5131,74.6687 15.5,71.5C 13.1667,73.5 10.8333,75.5 8.5,77.5C 5.12705,70.6168 3.46039,63.2835 3.5,55.5C 3.3047,48.944 4.97136,42.944 8.5,37.5C 10.8333,39.5 13.1667,41.5 15.5,43.5C 23.528,40.4118 31.8613,39.0784 40.5,39.5 Z"/></g>
<g><path style="opacity:1" fill="#269737" d="M 160.5,75.5 C 160.5,74.8333 160.5,74.1667 160.5,73.5C 167.602,72.9379 174.602,71.7712 181.5,70C 184.891,66.3854 186.225,62.052 185.5,57C 185.97,52.7181 184.97,48.8848 182.5,45.5C 175.329,43.3324 167.996,41.999 160.5,41.5C 160.5,40.8333 160.5,40.1667 160.5,39.5C 169.062,39.427 177.395,40.7604 185.5,43.5C 187.833,41.5 190.167,39.5 192.5,37.5C 194.194,39.5543 195.361,41.8877 196,44.5C 198.693,55.9631 197.527,66.9631 192.5,77.5C 190.167,75.5 187.833,73.5 185.5,71.5C 177.343,73.9561 169.01,75.2895 160.5,75.5 Z"/></g>
<g><path style="opacity:1" fill="#78bf83" d="M 40.5,41.5 C 40.5,52.1667 40.5,62.8333 40.5,73.5C 36.1318,73.6299 31.7985,73.2965 27.5,72.5C 18.091,71.5852 14.091,66.4186 15.5,57C 15.0299,52.7181 16.0299,48.8848 18.5,45.5C 25.4964,42.4447 32.8297,41.1114 40.5,41.5 Z"/></g>
<g><path style="opacity:1" fill="#79bf84" d="M 160.5,41.5 C 167.996,41.999 175.329,43.3324 182.5,45.5C 184.97,48.8848 185.97,52.7181 185.5,57C 186.225,62.052 184.891,66.3854 181.5,70C 174.602,71.7712 167.602,72.9379 160.5,73.5C 160.5,62.8333 160.5,52.1667 160.5,41.5 Z"/></g>
<g><path style="opacity:0.981" fill="#52ad61" d="M 40.5,117.5 C 40.5,118.167 40.5,118.833 40.5,119.5C 31.8613,119.078 23.528,120.412 15.5,123.5C 13.1667,121.5 10.8333,119.5 8.5,117.5C 4.97136,122.944 3.3047,128.944 3.5,135.5C 3.46039,143.283 5.12705,150.617 8.5,157.5C 10.8333,155.5 13.1667,153.5 15.5,151.5C 23.5131,154.669 31.8465,156.002 40.5,155.5C 40.5,156.167 40.5,156.833 40.5,157.5C 32.1573,157.897 23.9906,156.897 16,154.5C 13.8876,155.608 12.0542,157.108 10.5,159C 7.3565,159.952 4.8565,159.119 3,156.5C 1.9066,153.691 0.739932,151.024 -0.5,148.5C -0.5,141.833 -0.5,135.167 -0.5,128.5C 0.619525,124.009 2.61953,119.842 5.5,116C 7.16667,115.333 8.83333,115.333 10.5,116C 12.0542,117.892 13.8876,119.392 16,120.5C 23.9906,118.103 32.1573,117.103 40.5,117.5 Z"/></g>
<g><path style="opacity:0.982" fill="#52ad61" d="M 201.5,128.5 C 201.5,135.167 201.5,141.833 201.5,148.5C 200.26,151.024 199.093,153.691 198,156.5C 196.144,159.119 193.644,159.952 190.5,159C 188.946,157.108 187.112,155.608 185,154.5C 177.009,156.897 168.843,157.897 160.5,157.5C 160.5,156.833 160.5,156.167 160.5,155.5C 169.01,155.289 177.343,153.956 185.5,151.5C 187.833,153.5 190.167,155.5 192.5,157.5C 197.527,146.963 198.693,135.963 196,124.5C 195.361,121.888 194.194,119.554 192.5,117.5C 190.167,119.5 187.833,121.5 185.5,123.5C 177.395,120.76 169.062,119.427 160.5,119.5C 160.5,118.833 160.5,118.167 160.5,117.5C 168.843,117.103 177.009,118.103 185,120.5C 187.112,119.392 188.946,117.892 190.5,116C 192.167,115.333 193.833,115.333 195.5,116C 198.38,119.842 200.38,124.009 201.5,128.5 Z"/></g>
<g><path style="opacity:1" fill="#249737" d="M 40.5,119.5 C 40.5,120.167 40.5,120.833 40.5,121.5C 32.8297,121.111 25.4964,122.445 18.5,125.5C 16.0299,128.885 15.0299,132.718 15.5,137C 14.091,146.419 18.091,151.585 27.5,152.5C 31.7985,153.297 36.1318,153.63 40.5,153.5C 40.5,154.167 40.5,154.833 40.5,155.5C 31.8465,156.002 23.5131,154.669 15.5,151.5C 13.1667,153.5 10.8333,155.5 8.5,157.5C 5.12705,150.617 3.46039,143.283 3.5,135.5C 3.3047,128.944 4.97136,122.944 8.5,117.5C 10.8333,119.5 13.1667,121.5 15.5,123.5C 23.528,120.412 31.8613,119.078 40.5,119.5 Z"/></g>
<g><path style="opacity:1" fill="#269737" d="M 160.5,155.5 C 160.5,154.833 160.5,154.167 160.5,153.5C 167.602,152.938 174.602,151.771 181.5,150C 184.891,146.385 186.225,142.052 185.5,137C 185.97,132.718 184.97,128.885 182.5,125.5C 175.329,123.332 167.996,121.999 160.5,121.5C 160.5,120.833 160.5,120.167 160.5,119.5C 169.062,119.427 177.395,120.76 185.5,123.5C 187.833,121.5 190.167,119.5 192.5,117.5C 194.194,119.554 195.361,121.888 196,124.5C 198.693,135.963 197.527,146.963 192.5,157.5C 190.167,155.5 187.833,153.5 185.5,151.5C 177.343,153.956 169.01,155.289 160.5,155.5 Z"/></g>
<g><path style="opacity:1" fill="#78bf83" d="M 40.5,121.5 C 40.5,132.167 40.5,142.833 40.5,153.5C 36.1318,153.63 31.7985,153.297 27.5,152.5C 18.091,151.585 14.091,146.419 15.5,137C 15.0299,132.718 16.0299,128.885 18.5,125.5C 25.4964,122.445 32.8297,121.111 40.5,121.5 Z"/></g>
<g><path style="opacity:1" fill="#79bf84" d="M 160.5,121.5 C 167.996,121.999 175.329,123.332 182.5,125.5C 184.97,128.885 185.97,132.718 185.5,137C 186.225,142.052 184.891,146.385 181.5,150C 174.602,151.771 167.602,152.938 160.5,153.5C 160.5,142.833 160.5,132.167 160.5,121.5 Z"/></g>
</svg>
